<svg width="512" height="512" viewBox="0 0 512 512" fill="none" xmlns="http://www.w3.org/2000/svg">
<path d="M282.5 9.48933C266.102 0.0217919 245.898 0.0217834 229.5 9.48932L55.7656 109.795C39.3674 119.263 29.2656 136.759 29.2656 155.694V356.306C29.2656 375.241 39.3674 392.737 55.7656 402.205L229.5 502.511C245.898 511.978 266.102 511.978 282.5 502.511L295.028 495.278V187.151H275.489C204.568 190.046 166.213 235.638 145.227 282.677L135.819 310.177H119.174L139.437 173.402H482.735V155.694C482.735 136.759 472.633 119.263 456.235 109.795L282.5 9.48933Z" fill="#ED8600" style="fill:#ED8600;fill:color(display-p3 0.9294 0.5255 0.0000);fill-opacity:1;"/>
<path d="M482.735 218.355C461.802 199.427 434.56 187.917 397.79 187.151H376.804V448.064L456.235 402.205C472.633 392.737 482.735 375.241 482.735 356.306V218.355Z" fill="#ED8600" style="fill:#ED8600;fill:color(display-p3 0.9294 0.5255 0.0000);fill-opacity:1;"/>
</svg>
